<?xml version="1.0" standalone="no"?>
<!DOCTYPE svg PUBLIC "-//W3C//DTD SVG 20010904//EN"
 "http://www.w3.org/TR/2001/REC-SVG-20010904/DTD/svg10.dtd">
<svg version="1.0" xmlns="http://www.w3.org/2000/svg"
 width="675.000000pt" height="567.000000pt" viewBox="0 0 675.000000 567.000000"
 preserveAspectRatio="xMidYMid meet">

<g transform="translate(0.000000,567.000000) scale(0.100000,-0.100000)"
fill="#000000" stroke="none">
<path d="M2277 5390 c-136 -182 -206 -284 -201 -292 5 -7 744 -1001 1644
-2208 900 -1207 1639 -2201 1644 -2207 6 -10 -84 -13 -436 -13 l-443 0 -560
754 c-307 415 -562 753 -566 751 -3 -2 -257 -342 -564 -755 l-558 -750 -444 0
c-353 0 -443 3 -437 13 5 6 389 523 854 1147 465 624 849 1140 853 1147 5 8
-73 120 -205 296 l-213 284 -1320 -1769 c-726 -973 -1322 -1774 -1323 -1779
-2 -5 496 -9 1291 -9 l1295 0 387 517 c315 420 390 514 399 502 6 -9 179 -241
385 -517 l374 -502 1293 0 c712 0 1294 3 1294 6 0 10 -4221 5664 -4228 5664
-4 -1 -101 -126 -215 -280z"/>
<path d="M3935 5290 c-157 -209 -285 -382 -285 -385 0 -9 423 -565 429 -565 5
0 440 583 549 735 l24 33 -211 281 c-116 155 -213 281 -216 281 -3 0 -133
-171 -290 -380z"/>
</g>
</svg>
